Nederlands gesproken,

Het wereldberoemde verhaal van 'Romeo and Juliet' van William Shakespeare's toneelstuk. Dit keer verteld aan de hand van binnen- en buiten-kabouters. Wanneer de mensen (bewoners) van hun huizen weg zijn, is het voor twee rivaliserende kaboutergroepen elke keer weer een kans om tegen elkaar te strijden. Twee geliefden, genaamd Gnomeo en Juliet durven de liefde voor elkaar niet uit te dragen uit angst voor wat er met de eeuwig rivaliserende kaboutergroepen gebeurt.

------------------ Dutch Friends ------------------

Vrienden van mij vind je hier: http://www.Film-Test.nl 
                    
------ They got my dutchs subs ---- and more ------

General:

Complete name                    : Gnomeo and Juliet\Gnomeo and Juliet.avi
Format                           : AVI
Format/Info                      : Audio Video Interleave
File size                        : 1.31 GiB
Duration                         : 1h 20mn
Overall bit rate                 : 2 340 Kbps

Video:

Format                           : MPEG-4 Visual
Format profile                   : Simple@L3
Format settings, BVOP            : No
Format settings, QPel            : No
Format settings, GMC             : No warppoints
Format settings, Matrix          : Default (H.263)
Codec ID                         : XVID
Codec ID/Hint                    : XviD
Duration                         : 1h 20mn
Bit rate                         : 1 945 Kbps
Width                            : 652 pixels
Height                           : 352 pixels
Display aspect ratio             : 1.852
Frame rate                       : 25.000 fps
Color space                      : YUV
Chroma subsampling               : 4:2:0
Bit depth                        : 8 bits
Scan type                        : Progressive
Bits/(Pixel*Frame)               : 0.339
Stream size                      : 1.09 GiB (83%)
Writing library                  : XviD 1.1.2 (UTC 2006-11-01)

Audio:

Format                           : AC-3
Format/Info                      : Audio Coding 3
Mode extension                   : CM (complete main)
Codec ID                         : 2000
Duration                         : 1h 20mn
Bit rate mode                    : Constant
Bit rate                         : 384 Kbps
Channel(s)                       : 6 channels
Channel positions                : Front: L C R, Side: L R, LFE
Sampling rate                    : 48.0 KHz
Bit depth                        : 16 bits
Stream size                      : 221 MiB (16%)
Alignment                        : Aligned on interleaves
Interleave, duration             : 32 ms (0.80 video frame)
Interleave, preload duration     : 1056 ms

